<?xml version="1.0" standalone="no"?><!DOCTYPE svg PUBLIC "-//W3C//DTD SVG 1.1//EN" "http://www.w3.org/Graphics/SVG/1.1/DTD/svg11.dtd"><svg height="1024" node-id="1" sillyvg="true" template-height="1024" template-width="1024" version="1.1" viewBox="0 0 1024 1024" width="1024" xmlns="http://www.w3.org/2000/svg" xmlns:xlink="http://www.w3.org/1999/xlink"><defs node-id="110"><linearGradient gradientUnits="userSpaceOnUse" id="paint0_linear_1521_111919" node-id="34" spreadMethod="pad" x1="506" x2="506" y1="635" y2="890"><stop offset="0" stop-color="#bddfff"></stop><stop offset="0.95892" stop-color="#ffffff" stop-opacity="0"></stop></linearGradient><linearGradient gradientUnits="userSpaceOnUse" id="paint1_linear_1521_111919" node-id="37" spreadMethod="pad" x1="229.66" x2="229.66" y1="754.678" y2="615.257"><stop offset="0" stop-color="#5fb2ff"></stop><stop offset="0.7893" stop-color="#dff0ff"></stop></linearGradient><linearGradient gradientUnits="userSpaceOnUse" id="paint2_linear_1521_111919" node-id="40" spreadMethod="pad" x1="229.661" x2="229.661" y1="630.738" y2="784.347"><stop offset="0" stop-color="#dff0ff"></stop><stop offset="0.818" stop-color="#a2d2ff"></stop></linearGradient><linearGradient gradientUnits="userSpaceOnUse" id="paint3_linear_1521_111919" node-id="43" spreadMethod="pad" x1="883.842" x2="847.534" y1="720.042" y2="802.968"><stop offset="0.365159" stop-color="#c4e3ff"></stop><stop offset="1" stop-color="#5fb2ff"></stop></linearGradient><linearGradient gradientUnits="userSpaceOnUse" id="paint4_linear_1521_111919" node-id="46" spreadMethod="pad" x1="589.431" x2="378.667" y1="350.139" y2="701.617"><stop offset="0" stop-color="#6cb8ff"></stop><stop offset="0.656831" stop-color="#b2daff"></stop></linearGradient><linearGradient gradientUnits="userSpaceOnUse" id="paint5_linear_1521_111919" node-id="49" spreadMethod="pad" x1="589.431" x2="378.667" y1="350.139" y2="701.617"><stop offset="0" stop-color="#6cb8ff"></stop><stop offset="0.656831" stop-color="#b2daff"></stop></linearGradient><linearGradient gradientUnits="userSpaceOnUse" id="paint6_linear_1521_111919" node-id="52" spreadMethod="pad" x1="319.95398" x2="286.00897" y1="545.8989" y2="554.5499"><stop offset="0" stop-color="#6cb8ff"></stop><stop offset="0.656831" stop-color="#8fc8ff"></stop></linearGradient><linearGradient gradientUnits="userSpaceOnUse" id="paint7_linear_1521_111919" node-id="55" spreadMethod="pad" x1="661.427" x2="470.715" y1="344.317" y2="480.857"><stop offset="0" stop-color="#c4e3ff"></stop><stop offset="1" stop-color="#cee7ff"></stop></linearGradient><linearGradient gradientUnits="userSpaceOnUse" id="paint8_linear_1521_111919" node-id="58" spreadMethod="pad" x1="651.29" x2="490.818" y1="366.62" y2="426.097"><stop offset="0" stop-color="#5ca6eb"></stop><stop offset="1" stop-color="#87c4ff"></stop></linearGradient><linearGradient gradientUnits="userSpaceOnUse" id="paint9_linear_1521_111919" node-id="61" spreadMethod="pad" x1="682.035" x2="537.184" y1="500.048" y2="563.919"><stop offset="0" stop-color="#f6faff"></stop><stop offset="0.125571" stop-color="#f6faff"></stop><stop offset="1" stop-color="#309bff"></stop></linearGradient><linearGradient gradientUnits="userSpaceOnUse" id="paint10_linear_1521_111919" node-id="65" spreadMethod="pad" x1="435.835" x2="435.835" y1="505.016" y2="523.439"><stop offset="0" stop-color="#ffcda5"></stop><stop offset="1" stop-color="#ffe8d1"></stop></linearGradient><linearGradient gradientUnits="userSpaceOnUse" id="paint11_linear_1521_111919" node-id="68" spreadMethod="pad" x1="435.939" x2="411.343" y1="461.354" y2="507.163"><stop offset="0" stop-color="#fff2df"></stop><stop offset="1" stop-color="#fee0bc"></stop></linearGradient><linearGradient gradientUnits="userSpaceOnUse" id="paint12_linear_1521_111919" node-id="71" spreadMethod="pad" x1="422.126" x2="464.478" y1="464.659" y2="495.666"><stop offset="0" stop-color="#9f4326"></stop><stop offset="1" stop-color="#574915"></stop></linearGradient><linearGradient gradientUnits="userSpaceOnUse" id="paint13_linear_1521_111919" node-id="74" spreadMethod="pad" x1="430.148" x2="446.874" y1="559.184" y2="725.859"><stop offset="0" stop-color="#dde9ff"></stop><stop offset="1" stop-color="#c7ddff"></stop></linearGradient><linearGradient gradientUnits="userSpaceOnUse" id="paint14_linear_1521_111919" node-id="77" spreadMethod="pad" x1="400.813" x2="414.305" y1="524.237" y2="520.89"><stop offset="0" stop-color="#fee4c3"></stop><stop offset="1" stop-color="#ffd1ac"></stop></linearGradient><linearGradient gradientUnits="userSpaceOnUse" id="paint15_linear_1521_111919" node-id="80" spreadMethod="pad" x1="432.489" x2="418.738" y1="523.275" y2="592.842"><stop offset="0" stop-color="#d191ff"></stop><stop offset="1" stop-color="#8e94ff"></stop></linearGradient><linearGradient gradientUnits="userSpaceOnUse" id="paint16_linear_1521_111919" node-id="83" spreadMethod="pad" x1="408.999" x2="462.245" y1="502.77" y2="612.26"><stop offset="0" stop-color="#f094ff"></stop><stop offset="1" stop-color="#6688ff"></stop></linearGradient><linearGradient gradientUnits="userSpaceOnUse" id="paint17_linear_1521_111919" node-id="86" spreadMethod="pad" x1="381.294" x2="406.294" y1="496.099" y2="520.076"><stop offset="0" stop-color="#92aaff"></stop><stop offset="1" stop-color="#ffffff"></stop></linearGradient><linearGradient gradientUnits="userSpaceOnUse" id="paint18_linear_1521_111919" node-id="89" spreadMethod="pad" x1="381.294" x2="406.294" y1="496.099" y2="520.076"><stop offset="0" stop-color="#92aaff"></stop><stop offset="1" stop-color="#ffffff"></stop></linearGradient><linearGradient gradientUnits="userSpaceOnUse" id="paint19_linear_1521_111919" node-id="92" spreadMethod="pad" x1="403.414" x2="417.144" y1="527.234" y2="525.062"><stop offset="0" stop-color="#fee4c3"></stop><stop offset="1" stop-color="#ffd1ac"></stop></linearGradient><linearGradient gradientUnits="userSpaceOnUse" id="paint20_linear_1521_111919" node-id="95" spreadMethod="pad" x1="434.726" x2="427.793" y1="523.873" y2="594.448"><stop offset="0" stop-color="#d191ff"></stop><stop offset="1" stop-color="#8e94ff"></stop></linearGradient><linearGradient gradientUnits="userSpaceOnUse" id="paint21_linear_1521_111919" node-id="98" spreadMethod="pad" x1="742.934" x2="716.806" y1="335.294" y2="343.65"><stop offset="0" stop-color="#6cb8ff"></stop><stop offset="0.656831" stop-color="#8fc8ff"></stop></linearGradient><linearGradient gradientUnits="userSpaceOnUse" id="paint22_linear_1521_111919" node-id="101" spreadMethod="pad" x1="828.875" x2="802.747" y1="423.302" y2="431.658"><stop offset="0" stop-color="#6cb8ff"></stop><stop offset="0.656831" stop-color="#8fc8ff"></stop></linearGradient><linearGradient gradientUnits="userSpaceOnUse" id="paint23_linear_1521_111919" node-id="104" spreadMethod="pad" x1="838.683" x2="812.555" y1="546.029" y2="554.385"><stop offset="0" stop-color="#6cb8ff"></stop><stop offset="0.656831" stop-color="#8fc8ff"></stop></linearGradient><clipPath id="clip0_1521_111919" node-id="107"><path d="M 0.00 0.00 L 1024.00 0.00 L 1024.00 1024.00 L 0.00 1024.00 Z" fill="#000000" fill-rule="nonzero" node-id="259" stroke="none" target-height="1024" target-width="1024" target-x="0" target-y="0"></path></clipPath></defs><g clip-path="url(#clip0_1521_111919)" id="sillyvg_g_0" node-id="263"><path d="M 973.00 762.50 C 973.00 796.32 923.80 828.75 836.22 852.66 C 748.64 876.57 629.86 890.00 506.00 890.00 C 382.14 890.00 263.36 876.57 175.78 852.66 C 88.20 828.75 39.00 796.32 39.00 762.50 C 39.00 728.68 88.20 696.25 175.78 672.34 C 263.36 648.43 382.14 635.00 506.00 635.00 C 629.86 635.00 748.64 648.43 836.22 672.34 C 923.80 696.25 973.00 728.68 973.00 762.50 Z" fill="url(#paint0_linear_1521_111919)" fill-rule="nonzero" node-id="265" stroke="none" target-height="255" target-width="934" target-x="39" target-y="635"></path><path d="M 230.46 615.50 C 230.46 615.50 230.23 614.92 229.93 615.54 C 227.18 621.12 202.33 681.57 200.36 728.22 C 200.36 728.22 196.22 755.02 230.97 754.66 C 259.97 754.37 259.20 729.66 259.10 721.34 C 258.70 687.57 230.46 615.50 230.46 615.50 Z" fill="url(#paint1_linear_1521_111919)" fill-rule="nonzero" node-id="267" stroke="none" target-height="140.09802" target-width="63.757996" target-x="196.215" target-y="614.922"></path><path d="M 229.66 784.34 C 229.10 784.34 228.65 783.89 228.65 783.33 L 228.65 631.75 C 228.65 631.20 229.10 630.74 229.66 630.74 C 230.22 630.74 230.68 631.20 230.68 631.75 L 230.68 783.33 C 230.68 783.90 230.22 784.34 229.66 784.34 Z" fill="url(#paint2_linear_1521_111919)" fill-rule="nonzero" node-id="269" stroke="none" target-height="153.60602" target-width="2.0329895" target-x="228.647" target-y="630.737"></path><path d="M 869.35 810.66 C 876.54 808.40 883.52 805.45 889.87 797.18 C 891.18 795.48 892.40 793.31 891.69 791.28 C 891.15 789.76 889.59 788.78 888.01 788.53 C 887.42 788.44 886.83 788.43 886.23 788.48 L 886.23 788.48 C 885.32 788.57 884.41 788.75 883.54 789.01 L 883.28 789.09 C 879.09 790.30 875.09 792.13 871.42 794.52 C 871.09 794.74 870.70 794.83 870.31 794.79 C 869.91 794.75 869.55 794.58 869.27 794.30 C 868.98 794.02 868.80 793.65 868.75 793.25 C 868.70 792.86 868.79 792.45 868.99 792.11 C 869.37 791.49 869.80 790.91 870.29 790.38 C 871.01 789.61 871.81 788.92 872.66 788.30 C 873.79 787.46 874.99 786.72 876.17 785.95 C 880.56 783.12 884.72 779.93 888.61 776.42 C 891.38 773.91 894.09 771.13 895.41 767.61 C 896.01 765.99 896.29 764.12 895.57 762.55 C 894.38 759.97 891.00 759.25 888.24 759.78 C 883.40 760.72 879.53 764.32 876.10 767.91 C 873.26 770.89 870.08 774.19 865.99 774.37 C 865.29 774.44 864.59 774.30 863.98 773.96 C 862.81 773.25 862.51 771.59 862.93 770.27 C 863.34 768.95 864.30 767.90 865.23 766.89 C 870.62 761.02 875.93 754.92 879.43 747.73 C 882.93 740.53 884.48 732.04 882.05 724.41 C 881.34 722.18 880.26 720.00 878.59 718.38 C 876.92 716.76 874.58 715.75 872.28 716.06 C 869.15 716.47 866.80 719.15 865.21 721.91 C 859.77 731.40 860.10 743.02 858.57 753.89 C 858.14 756.93 857.51 760.05 855.73 762.56 C 855.56 762.80 855.35 763.00 855.10 763.15 C 853.63 764.01 852.31 762.27 851.76 760.79 C 849.58 754.95 849.04 748.26 845.14 743.43 C 843.65 741.59 841.54 740.05 839.20 740.06 C 836.33 740.08 833.88 742.51 833.04 745.29 C 832.20 748.07 832.71 751.10 833.60 753.86 C 835.26 758.98 838.25 763.58 841.76 767.63 C 843.61 769.76 845.71 771.92 846.26 774.71 C 846.43 775.65 846.36 776.63 846.05 777.54 C 845.75 778.45 845.22 779.27 844.51 779.91 C 844.18 780.20 843.80 780.42 843.39 780.56 C 842.97 780.70 842.53 780.75 842.10 780.71 C 841.16 780.63 840.31 780.14 839.48 779.67 C 839.14 779.47 838.79 779.26 838.45 779.07 C 837.08 778.28 835.71 777.48 834.34 776.69 C 830.85 774.67 826.65 772.61 823.02 774.35 C 821.17 775.24 819.95 776.98 819.38 778.99 C 818.87 780.80 818.87 782.73 819.38 784.55 C 820.46 788.33 827.28 798.85 830.09 801.56 C 833.37 804.73 844.75 818.40 869.35 810.66 Z" fill="url(#paint3_linear_1521_111919)" fill-rule="nonzero" node-id="271" stroke="none" target-height="102.653015" target-width="77.41901" target-x="818.872" target-y="715.745"></path><path d="M 538.94 366.41 C 548.97 349.64 559.35 339.08 570.09 334.75 C 580.83 330.40 591.47 330.62 602.00 335.38 C 612.54 340.14 622.72 348.58 632.56 360.70 C 642.40 372.82 651.57 386.83 660.07 402.73 C 668.57 418.63 676.34 435.59 683.38 453.61 C 690.41 471.62 696.25 489.02 700.91 505.82 C 705.56 522.62 709.02 539.75 711.30 557.20 C 713.57 574.66 714.45 591.39 713.94 607.40 C 713.43 623.41 711.62 637.82 708.51 650.62 C 705.40 663.43 700.79 673.58 694.67 681.07 C 688.56 688.57 680.92 692.73 671.77 693.56 C 662.62 694.39 651.79 690.73 639.30 682.59 C 627.12 674.36 612.20 668.85 594.54 666.06 C 576.88 663.28 558.10 662.00 538.19 662.22 C 518.29 662.44 498.42 663.68 478.57 665.93 C 458.72 668.19 440.54 670.33 424.03 672.34 C 407.53 674.35 393.66 675.72 382.43 676.44 C 371.20 677.16 364.51 676.11 362.36 673.29 C 362.36 673.29 321.11 529.28 321.15 524.49 C 321.19 519.70 325.17 514.67 333.10 509.41 C 341.02 504.14 351.37 498.38 364.14 492.11 C 376.91 485.85 391.35 478.86 407.47 471.15 C 423.60 463.44 439.73 454.54 455.87 444.44 C 472.01 434.34 487.36 422.92 501.92 410.19 C 516.48 397.45 528.82 382.86 538.94 366.41 Z" fill="url(#paint4_linear_1521_111919)" fill-rule="nonzero" node-id="273" stroke="none" target-height="363.983" target-width="393.34097" target-x="321.113" target-y="330.405"></path><path d="M 268.78 572.83 C 265.52 560.66 272.74 548.15 284.91 544.89 L 324.57 534.27 L 358.82 662.06 L 319.16 672.69 C 306.99 675.95 294.48 668.73 291.22 656.56 L 268.78 572.83 Z" fill="url(#paint5_linear_1521_111919)" fill-rule="nonzero" node-id="275" stroke="none" target-height="141.685" target-width="93.29498" target-x="265.522" target-y="534.267"></path><path d="M 306.39 539.14 L 324.57 534.27 L 358.82 662.06 L 340.63 666.94 Z" fill="url(#paint6_linear_1521_111919)" fill-rule="nonzero" group-id="1" node-id="279" stroke="none" target-height="132.67078" target-width="52.429657" target-x="306.388" target-y="534.266"></path><path d="M 700.79 493.36 L 704.03 506.02 L 706.86 518.39 L 709.27 530.47 L 711.28 542.27 L 712.98 554.29 L 714.28 565.83 L 715.19 576.92 L 715.73 587.58 L 715.92 598.46 L 715.74 608.69 L 715.21 618.32 L 714.35 627.36 L 713.06 636.60 L 711.45 645.03 L 709.55 652.71 L 707.37 659.70 L 704.64 666.73 L 701.66 672.84 L 698.44 678.13 L 695.02 682.68 L 691.82 686.09 L 688.49 688.93 L 685.00 691.24 L 681.35 693.05 L 677.50 694.39 L 673.50 695.18 L 669.44 695.46 L 665.26 695.23 L 660.95 694.47 L 656.47 693.14 L 651.21 690.95 L 645.77 688.01 L 640.10 684.24 L 634.19 679.56 L 628.78 674.63 L 623.26 668.96 L 617.60 662.50 L 611.82 655.18 L 606.51 647.81 L 601.19 639.77 L 595.86 631.04 L 590.53 621.55 L 585.60 612.08 L 580.78 602.05 L 576.07 591.44 L 571.46 580.21 L 567.23 569.01 L 563.21 557.37 L 559.39 545.27 L 555.79 532.70 L 552.54 520.04 L 549.72 507.67 L 547.31 495.59 L 545.30 483.79 L 543.60 471.78 L 542.30 460.23 L 541.39 449.14 L 540.85 438.48 L 540.66 427.60 L 540.84 417.37 L 541.37 407.75 L 542.23 398.70 L 543.52 389.46 L 545.13 381.03 L 547.03 373.35 L 549.20 366.36 L 551.94 359.33 L 554.92 353.22 L 558.13 347.93 L 561.56 343.38 L 564.76 339.97 L 568.09 337.13 L 571.58 334.82 L 575.23 333.01 L 579.08 331.67 L 583.07 330.88 L 587.14 330.60 L 591.32 330.83 L 595.63 331.59 L 600.11 332.92 L 605.37 335.11 L 610.81 338.05 L 616.48 341.82 L 622.39 346.50 L 627.80 351.44 L 633.32 357.10 L 638.97 363.56 L 644.76 370.88 L 650.07 378.25 L 655.39 386.29 L 660.72 395.03 L 666.05 404.51 L 670.97 413.98 L 675.79 424.01 L 680.51 434.62 L 685.12 445.85 L 689.34 457.05 L 693.37 468.69 L 697.19 480.79 L 700.79 493.36 Z" fill="url(#paint7_linear_1521_111919)" fill-rule="nonzero" group-id="2" node-id="284" stroke="none" target-height="364.86273" target-width="175.25989" target-x="540.65906" target-y="330.59967"></path><path d="M 677.65 497.47 L 681.40 511.83 L 684.61 525.71 L 687.30 539.13 L 689.60 552.65 L 691.37 565.43 L 692.64 577.49 L 693.49 589.63 L 693.83 600.76 L 693.72 610.94 L 693.10 621.15 L 692.04 630.09 L 690.58 637.89 L 689.04 643.78 L 687.30 648.82 L 685.37 653.11 L 683.29 656.72 L 681.23 659.51 L 679.07 661.76 L 676.81 663.54 L 674.43 664.88 L 671.90 665.82 L 669.26 666.31 L 666.52 666.38 L 663.67 666.02 L 660.66 665.20 L 657.45 663.87 L 653.82 661.84 L 649.97 659.15 L 645.88 655.73 L 641.52 651.46 L 636.27 645.52 L 630.76 638.40 L 624.98 629.96 L 619.65 621.29 L 614.22 611.56 L 608.71 600.71 L 603.60 589.71 L 598.55 577.85 L 593.57 565.07 L 588.99 552.17 L 584.61 538.61 L 580.44 524.37 L 576.69 510.01 L 573.48 496.13 L 570.78 482.71 L 568.48 469.19 L 566.71 456.41 L 565.44 444.35 L 564.60 432.21 L 564.25 421.08 L 564.37 410.90 L 564.99 400.69 L 566.05 391.75 L 567.50 383.95 L 569.05 378.06 L 570.79 373.02 L 572.72 368.73 L 574.79 365.12 L 576.85 362.33 L 579.01 360.08 L 581.28 358.30 L 583.66 356.96 L 586.18 356.02 L 588.83 355.53 L 591.57 355.46 L 594.42 355.82 L 597.43 356.64 L 600.63 357.97 L 604.27 360.00 L 608.12 362.69 L 612.21 366.11 L 616.57 370.38 L 621.82 376.32 L 627.33 383.44 L 633.10 391.88 L 638.44 400.55 L 643.87 410.28 L 649.38 421.13 L 654.49 432.13 L 659.54 443.99 L 664.52 456.77 L 669.10 469.67 L 673.48 483.23 L 677.65 497.47 Z" fill="url(#paint8_linear_1521_111919)" fill-rule="nonzero" group-id="3" node-id="289" stroke="none" target-height="310.9277" target-width="129.58142" target-x="564.2533" target-y="355.45615"></path><path d="M 606.64 596.37 C 596.86 575.50 587.81 551.01 580.44 524.37 C 574.18 501.75 569.76 479.84 567.13 459.71 C 596.60 455.12 626.46 480.80 634.67 518.44 C 641.99 551.99 629.71 584.06 606.64 596.37 Z" fill="url(#paint9_linear_1521_111919)" fill-rule="evenodd" node-id="292" stroke="none" target-height="141.24799" target-width="74.859985" target-x="567.132" target-y="455.123"></path><path d="M 493.00 747.50 C 493.00 756.06 467.70 763.00 436.50 763.00 C 405.30 763.00 380.00 756.06 380.00 747.50 C 380.00 738.94 405.30 732.00 436.50 732.00 C 467.70 732.00 493.00 738.94 493.00 747.50 Z" fill="#7d7d7d" fill-opacity="0.15" fill-rule="nonzero" node-id="294" stroke="none" target-height="31" target-width="113" target-x="380" target-y="732"></path><path d="M 425.26 502.28 L 446.41 502.28 L 446.41 523.44 L 425.26 523.44 L 425.26 502.28 Z" fill="url(#paint10_linear_1521_111919)" fill-rule="nonzero" node-id="296" stroke="none" target-height="21.15802" target-width="21.15799" target-x="425.256" target-y="502.281"></path><path d="M 432.71 509.91 C 421.12 509.91 411.73 499.04 411.73 485.63 C 411.73 472.22 421.12 461.35 432.71 461.35 C 444.30 461.35 453.70 472.22 453.70 485.63 C 453.70 499.04 444.30 509.91 432.71 509.91 Z" fill="url(#paint11_linear_1521_111919)" fill-rule="nonzero" node-id="298" stroke="none" target-height="48.557983" target-width="41.967987" target-x="411.729" target-y="461.354"></path><path d="M 457.55 447.00 C 453.64 447.00 450.22 449.16 448.40 452.37 C 441.38 449.95 431.77 449.36 421.15 456.50 C 419.57 457.76 418.15 459.12 416.99 460.59 C 410.73 467.12 411.11 478.07 412.12 479.16 C 412.57 479.64 413.76 479.68 415.55 479.73 C 419.04 479.82 424.81 479.98 431.80 483.65 C 432.75 484.30 433.60 484.96 434.29 485.67 C 434.44 485.53 434.60 485.35 434.79 485.13 C 436.62 483.14 440.63 478.74 444.64 484.17 C 447.60 491.68 441.24 495.98 438.47 495.12 C 439.45 498.22 441.59 501.29 446.12 505.18 C 451.42 505.18 453.51 505.18 460.12 500.68 C 465.80 495.26 473.00 481.01 464.62 465.71 C 466.77 463.74 468.12 460.90 468.12 457.73 C 468.12 451.81 463.39 447.00 457.55 447.00 Z" fill="url(#paint12_linear_1521_111919)" fill-rule="evenodd" node-id="300" stroke="none" target-height="58.183014" target-width="62.277008" target-x="410.728" target-y="447"></path><path d="M 464.23 731.21 L 455.50 732.75 L 457.55 744.39 L 466.29 742.85 Z" fill="#fee4c3" fill-rule="nonzero" group-id="4" node-id="304" stroke="none" target-height="13.183411" target-width="10.785797" target-x="455.50128" target-y="731.207"></path><path d="M 443.29 748.28 C 443.29 752.35 448.23 752.70 454.77 752.70 C 461.32 752.70 468.31 752.70 469.79 748.28 C 469.73 748.47 471.27 745.33 466.83 740.91 C 466.83 740.91 462.39 743.86 456.46 740.91 C 450.69 742.04 443.29 745.25 443.29 748.28 Z" fill="#4f538f" fill-rule="nonzero" node-id="307" stroke="none" target-height="11.79303" target-width="27.980988" target-x="443.293" target-y="740.91"></path><path d="M 419.77 731.14 L 411.05 732.72 L 413.15 744.36 L 421.88 742.78 Z" fill="#fee4c3" fill-rule="nonzero" group-id="5" node-id="311" stroke="none" target-height="13.213074" target-width="10.83078" target-x="411.04724" target-y="731.145"></path><path d="M 398.77 748.17 C 398.79 752.25 403.72 752.58 410.25 752.55 C 416.78 752.53 423.76 752.50 425.22 748.05 C 425.15 748.25 426.68 745.09 422.23 740.68 C 422.23 740.68 417.81 743.65 411.88 740.72 C 406.12 741.88 398.76 745.13 398.77 748.17 Z" fill="#4f538f" fill-rule="nonzero" node-id="314" stroke="none" target-height="11.906006" target-width="27.923004" target-x="398.76" target-y="740.678"></path><path d="M 446.20 601.13 C 453.55 601.16 459.43 601.89 459.43 601.89 C 459.43 601.89 457.37 623.79 459.01 647.67 C 461.69 686.81 468.61 735.77 468.61 735.77 L 454.00 735.77 C 454.00 735.77 429.98 669.62 430.24 626.46 C 421.54 662.82 422.65 736.40 422.65 736.40 L 407.28 735.13 C 407.28 735.13 401.86 690.58 400.52 654.76 C 399.44 625.75 402.39 604.03 402.39 604.03 C 409.91 603.19 417.52 603.12 425.07 603.81 C 425.09 603.81 425.11 603.82 425.13 603.82 C 428.46 602.91 432.63 601.98 436.88 601.55 C 439.79 601.25 442.73 601.14 445.49 601.13 L 446.20 601.13 Z" fill="url(#paint13_linear_1521_111919)" fill-rule="nonzero" node-id="316" stroke="none" target-height="135.27002" target-width="69.172" target-x="399.44" target-y="601.133"></path><path d="M 409.00 513.91 C 412.27 513.43 413.26 516.68 414.55 521.87 C 415.83 527.05 416.36 532.71 412.63 533.63 C 408.92 534.55 404.38 530.42 403.10 525.24 C 394.70 516.68 401.86 506.27 409.00 513.91 Z" fill="url(#paint14_linear_1521_111919)" fill-rule="nonzero" node-id="318" stroke="none" target-height="28.277008" target-width="21.652008" target-x="394.703" target-y="506.275"></path><path d="M 451.01 537.13 C 453.10 527.61 456.71 522.71 451.60 518.57 C 439.79 517.48 429.04 534.79 425.53 546.45 C 420.56 552.62 418.79 519.67 412.73 519.85 C 408.57 521.78 403.19 525.31 403.19 525.31 C 403.19 525.31 405.70 574.25 423.41 569.07 C 441.11 563.88 448.80 547.23 451.01 537.13 Z" fill="url(#paint15_linear_1521_111919)" fill-rule="nonzero" node-id="320" stroke="none" target-height="56.768982" target-width="53.52301" target-x="403.189" target-y="517.484"></path><path d="M 425.28 513.13 C 433.57 522.59 442.54 516.09 446.00 511.65 C 446.49 511.65 450.14 513.36 454.88 519.04 C 462.28 527.92 468.26 587.13 463.76 615.20 C 441.06 617.18 391.33 619.06 393.69 613.14 C 396.65 605.74 404.56 557.51 406.04 542.71 C 406.63 536.83 413.44 517.56 425.28 513.13 Z" fill="url(#paint16_linear_1521_111919)" fill-rule="nonzero" node-id="322" stroke="none" target-height="107.41101" target-width="76.939026" target-x="391.326" target-y="511.646"></path><path d="M 422.48 514.60 C 422.48 514.60 423.97 513.14 425.45 513.14 C 433.44 520.97 442.50 515.53 446.22 511.69 C 446.36 511.54 447.71 511.69 449.19 513.14 C 436.13 524.77 425.94 518.96 422.48 514.60 Z" fill="#5b7efb" fill-rule="nonzero" node-id="324" stroke="none" target-height="13.225006" target-width="26.707" target-x="422.482" target-y="511.543"></path><path d="M 412.81 497.32 C 412.55 496.58 412.06 496.06 411.36 495.74 C 410.65 495.42 409.93 495.39 409.20 495.65 L 406.53 496.62 L 410.81 508.52 L 413.48 507.56 C 414.22 507.29 414.75 506.81 415.09 506.11 C 415.43 505.42 415.47 504.70 415.21 503.97 L 412.81 497.32 Z M 380.91 496.46 C 379.28 495.74 377.95 495.50 376.92 495.74 C 375.89 495.99 375.11 496.56 374.57 497.47 C 374.04 498.38 373.72 499.55 373.63 500.97 C 373.53 502.39 373.59 503.92 373.79 505.55 C 374.00 507.19 374.31 508.86 374.74 510.57 C 375.17 512.28 375.65 513.89 376.19 515.39 C 376.72 516.88 377.37 518.34 378.12 519.76 C 378.87 521.18 379.69 522.47 380.57 523.64 C 381.45 524.80 382.35 525.78 383.25 526.57 C 384.16 527.36 385.04 527.88 385.89 528.11 C 386.74 528.35 387.53 528.25 388.25 527.83 C 388.98 527.41 389.60 526.57 390.10 525.30 C 390.57 524.05 391.39 522.85 392.56 521.71 C 393.73 520.58 395.06 519.49 396.56 518.46 C 398.06 517.42 399.60 516.47 401.20 515.59 C 402.80 514.71 404.27 513.91 405.60 513.19 C 406.94 512.47 408.05 511.84 408.92 511.30 C 409.80 510.76 410.24 510.33 410.25 510.01 L 405.48 496.75 C 405.22 496.40 404.66 496.23 403.79 496.26 C 402.92 496.29 401.85 496.40 400.57 496.61 C 399.28 496.81 397.84 497.06 396.23 497.33 C 394.62 497.61 392.95 497.79 391.21 497.89 C 389.48 497.99 387.73 497.95 385.98 497.77 C 384.22 497.59 382.53 497.15 380.91 496.46 Z" fill="url(#paint17_linear_1521_111919)" fill-rule="nonzero" node-id="326" stroke="none" target-height="32.959015" target-width="41.936005" target-x="373.534" target-y="495.389"></path><path d="M 408.89 511.76 C 408.46 510.59 407.17 509.98 406.00 510.40 L 403.88 511.17 C 402.71 511.59 402.10 512.88 402.52 514.05 L 405.19 521.48 C 405.62 522.65 406.91 523.26 408.08 522.84 L 410.20 522.07 C 411.37 521.65 411.98 520.36 411.56 519.18 L 408.89 511.76 Z" fill="url(#paint18_linear_1521_111919)" fill-rule="nonzero" node-id="328" stroke="none" target-height="13.275024" target-width="9.884003" target-x="402.098" target-y="509.982"></path><path d="M 412.45 517.65 C 415.76 517.46 416.47 520.78 417.30 526.05 C 418.13 531.33 418.17 537.01 414.38 537.61 C 410.60 538.21 406.44 533.70 405.60 528.43 C 397.98 519.17 406.01 509.43 412.45 517.65 Z" fill="url(#paint19_linear_1521_111919)" fill-rule="nonzero" node-id="330" stroke="none" target-height="28.779999" target-width="20.190002" target-x="397.978" target-y="509.428"></path><path d="M 458.38 537.01 C 459.53 527.33 457.37 519.64 451.69 515.99 C 439.45 516.02 443.18 538.16 431.43 549.92 C 426.97 556.53 423.49 531.33 416.84 523.32 C 412.78 525.64 404.88 527.44 404.88 527.44 C 404.88 527.44 416.34 578.76 433.21 570.35 C 449.00 562.48 457.16 547.27 458.38 537.01 Z" fill="url(#paint20_linear_1521_111919)" fill-rule="nonzero" node-id="332" stroke="none" target-height="62.770996" target-width="54.65399" target-x="404.875" target-y="515.988"></path><path d="M 738.82 334.39 L 738.82 334.39 L 740.48 335.54 L 741.73 337.02 L 742.55 338.75 L 742.91 340.64 L 742.78 342.56 L 742.11 344.47 L 710.91 406.02 L 709.76 407.69 L 708.29 408.93 L 706.55 409.75 L 704.67 410.11 L 702.75 409.98 L 700.83 409.31 L 700.83 409.31 L 699.16 408.16 L 697.92 406.69 L 697.09 404.96 L 696.73 403.07 L 696.87 401.15 L 697.53 399.23 L 728.73 337.69 L 729.89 336.02 L 731.36 334.78 L 733.09 333.95 L 734.98 333.60 L 736.90 333.73 L 738.82 334.39 Z" fill="url(#paint21_linear_1521_111919)" fill-rule="nonzero" group-id="6" node-id="336" stroke="none" target-height="76.518005" target-width="46.177246" target-x="696.73444" target-y="333.59503"></path><path d="M 821.41 425.73 L 821.41 425.73 L 822.06 427.65 L 822.18 429.57 L 821.80 431.45 L 820.96 433.18 L 819.71 434.64 L 818.03 435.78 L 756.25 466.51 L 754.33 467.16 L 752.41 467.28 L 750.53 466.90 L 748.80 466.07 L 747.33 464.81 L 746.20 463.13 L 746.20 463.13 L 745.55 461.21 L 745.43 459.29 L 745.80 457.41 L 746.64 455.68 L 747.89 454.22 L 749.57 453.08 L 811.35 422.35 L 813.27 421.70 L 815.20 421.58 L 817.08 421.96 L 818.80 422.79 L 820.27 424.05 L 821.41 425.73 Z" fill="url(#paint22_linear_1521_111919)" fill-rule="nonzero" group-id="7" node-id="341" stroke="none" target-height="45.697754" target-width="76.7478" target-x="745.42737" target-y="421.5811"></path><path d="M 826.06 549.01 L 826.06 549.01 L 825.31 550.90 L 824.15 552.44 L 822.64 553.63 L 820.89 554.40 L 818.98 554.70 L 816.97 554.48 L 750.02 537.77 L 748.14 537.02 L 746.59 535.86 L 745.41 534.36 L 744.63 532.60 L 744.34 530.70 L 744.56 528.68 L 744.56 528.68 L 745.31 526.80 L 746.47 525.26 L 747.97 524.07 L 749.73 523.30 L 751.63 523.00 L 753.65 523.22 L 820.60 539.92 L 822.48 540.67 L 824.02 541.83 L 825.21 543.34 L 825.98 545.09 L 826.28 547.00 L 826.06 549.01 Z" fill="url(#paint23_linear_1521_111919)" fill-rule="nonzero" group-id="8" node-id="346" stroke="none" target-height="31.7005" target-width="81.94678" target-x="744.33514" target-y="522.9973"></path></g></svg>