<?xml version="1.0" encoding="utf-8"?>
<!-- Generator: Adobe Illustrator 26.4.1, SVG Export Plug-In . SVG Version: 6.00 Build 0)  -->
<svg version="1.1" id="图层_1" xmlns="http://www.w3.org/2000/svg" xmlns:xlink="http://www.w3.org/1999/xlink" x="0px" y="0px"
	 viewBox="0 0 560 1024" style="enable-background:new 0 0 560 1024;" xml:space="preserve">
<style type="text/css">
	.st0{fill:#347DF9;}
	.st1{fill:#458BFF;}
</style>
<path class="st0" d="M0,0v148.6C107.7,203,184.7,279.9,227.8,357.2l98.2-64.3c-6.8,19.6-26.8,73.5-68.6,133.7
	c12.1,41.2,13.7,80.5,4.4,114.3C238,626.3,137.6,700.8,0,733.5v25.3v81.3v58.4c79.5-0.6,172-9.3,272.3-34.4
	c111.1-27.8,207-69.5,287.7-115.1v-70.2V638v-32.8V497.9V248.2V138V0H0z"/>
<path class="st1" d="M261.7,540.8c9.4-33.9,7.7-73.1-4.4-114.3c-41,59-103.1,124-194.4,168.8C41.6,605.8,20.5,614.2,0,621
	c0,13.1,0,26.3,0,39.4v73.2C137.6,700.8,238,626.3,261.7,540.8z"/>
<path class="st0" d="M325.9,292.8l-98.2,64.3c13,23.3,22.8,46.6,29.5,69.3C299.1,366.3,319.1,312.5,325.9,292.8z"/>
</svg>
