<?xml version="1.0" encoding="utf-8"?>
<!-- Generator: Adobe Illustrator 26.4.1, SVG Export Plug-In . SVG Version: 6.00 Build 0)  -->
<svg version="1.1" id="_图层_2" xmlns="http://www.w3.org/2000/svg" xmlns:xlink="http://www.w3.org/1999/xlink" x="0px" y="0px"
	 viewBox="0 0 316.7 305.1" style="enable-background:new 0 0 316.7 305.1;" xml:space="preserve">
<style type="text/css">
	.st0{fill:#062C53;}
</style>
<g id="_图层_1-2">
	<g>
		<path class="st0" d="M222.8,165.8c-23.5-33.2-36.2-64.9-43.2-87.6c0.3,4.1,0.5,8.1,0.7,12.2c9.9,65,19.8,130,29.7,194.9
			c29-11.5,53.3-32.4,69.1-59C262.7,212.8,242.1,193.1,222.8,165.8L222.8,165.8z"/>
		<path class="st0" d="M97.4,165.7c-20.7,28.7-43.1,48.2-59.8,60.6c15.8,26.7,40.3,47.8,69.6,59.2c10.1-66.8,20.2-133.4,30.2-200.2
			C131.1,105.8,119.4,135.1,97.4,165.7z"/>
		<path class="st0" d="M86.2,130.1c15.1-15.5,33.4-34.4,45.6-65.2c5.8-14.5,8.6-27.4,10-36.4c-6.9,11.4-21.5,32.2-47.5,49
			c-26.6,17.2-52,21.9-65.3,23.4c-7,16.6-10.8,34.9-10.8,54.1c0,2.8,0.1,5.7,0.3,8.5c0.5,6,1.3,11.4,2.3,16
			C51.3,162.8,72.7,143.9,86.2,130.1L86.2,130.1z"/>
		<path class="st0" d="M142.7,15.5C104,19.8,70,39.8,47.5,69.1c11.6-1.1,32.2-4.3,54.2-17C122.8,40.1,135.8,25,142.7,15.5z"/>
		<path class="st0" d="M211.8,50.4c23.1,13.9,45.1,17.8,57.8,19c-22.6-29.3-56.4-49.4-95-53.8c0.2,0.9,0.3,1.7,0.4,2.6
			C182.1,27.1,194,39.7,211.8,50.4z"/>
		<path class="st0" d="M178.5,32.2c6.6,13.3,22.2,40.3,53.6,61.4c24.3,16.4,47.8,22.4,61.9,24.8c-1.6-6-3.6-12-6-17.6
			c-13.7-2.7-32.7-8-52.9-19.2C206.2,65.6,188.1,45.2,178.5,32.2z"/>
		<path class="st0" d="M232.2,118.9c-29.2-26.4-45.3-54.6-53.6-72.4c4.2,15.3,11.4,34.2,23.7,53.7c30.2,47.9,73,70.6,94,79.9
			c0.1-0.5,0.3-1,0.4-1.5c1-5.9,1.7-12,1.9-18.1C281.6,153.6,256.9,141.1,232.2,118.9L232.2,118.9z"/>
	</g>
</g>
</svg>
